<mxfile host="app.diagrams.net" agent="Mozilla/5.0 (Windows NT 10.0; Win64; x64; rv:135.0) Gecko/20100101 Firefox/135.0" version="26.0.16">
  <diagram name="Page-1" id="15wc1YLHm22dBf-tsg1X">
    <mxGraphModel dx="842" dy="783" grid="1" gridSize="10" guides="1" tooltips="1" connect="1" arrows="1" fold="1" page="1" pageScale="1" pageWidth="827" pageHeight="1169" math="0" shadow="0">
      <root>
        <mxCell id="0" />
        <mxCell id="1" parent="0" />
        <mxCell id="6itodu7bnTEYhRpX155G-1" value="Compte" style="swimlane;fontStyle=2;align=center;verticalAlign=top;childLayout=stackLayout;horizontal=1;startSize=26;horizontalStack=0;resizeParent=1;resizeLast=0;collapsible=1;marginBottom=0;rounded=0;shadow=0;strokeWidth=1;" vertex="1" parent="1">
          <mxGeometry x="21" y="110" width="350" height="250" as="geometry">
            <mxRectangle x="230" y="140" width="160" height="26" as="alternateBounds" />
          </mxGeometry>
        </mxCell>
        <mxCell id="6itodu7bnTEYhRpX155G-2" value="static int get_id&#xa;protected int id&#xa;protected String pseudo&#xa;protected String password&#xa;protected Boolean active&#xa;protected ArrayList&lt;Personnage&gt; liste_personnage&#xa;public static ArrayList&lt;Compte&gt; liste_compte" style="text;align=left;verticalAlign=top;spacingLeft=4;spacingRight=4;overflow=hidden;rotatable=0;points=[[0,0.5],[1,0.5]];portConstraint=eastwest;" vertex="1" parent="6itodu7bnTEYhRpX155G-1">
          <mxGeometry y="26" width="350" height="104" as="geometry" />
        </mxCell>
        <mxCell id="6itodu7bnTEYhRpX155G-3" value="" style="line;html=1;strokeWidth=1;align=left;verticalAlign=middle;spacingTop=-1;spacingLeft=3;spacingRight=3;rotatable=0;labelPosition=right;points=[];portConstraint=eastwest;" vertex="1" parent="6itodu7bnTEYhRpX155G-1">
          <mxGeometry y="130" width="350" height="10" as="geometry" />
        </mxCell>
        <mxCell id="6itodu7bnTEYhRpX155G-4" value="public Compte(String pseudo, String password)&#xa;public Boolean ajouter_personnage(Personnage personnage)&#xa;public Boolean supprimer_personnage(Personnage personnage)&#xa;public Personnage get_personnage_by_id(int id)&#xa;public String ToString()" style="text;align=left;verticalAlign=top;spacingLeft=4;spacingRight=4;overflow=hidden;rotatable=0;points=[[0,0.5],[1,0.5]];portConstraint=eastwest;" vertex="1" parent="6itodu7bnTEYhRpX155G-1">
          <mxGeometry y="140" width="350" height="110" as="geometry" />
        </mxCell>
        <mxCell id="6itodu7bnTEYhRpX155G-5" value="Base_de_donnees" style="swimlane;fontStyle=2;align=center;verticalAlign=top;childLayout=stackLayout;horizontal=1;startSize=26;horizontalStack=0;resizeParent=1;resizeLast=0;collapsible=1;marginBottom=0;rounded=0;shadow=0;strokeWidth=1;" vertex="1" parent="1">
          <mxGeometry x="470" y="160" width="340" height="170" as="geometry">
            <mxRectangle x="470" y="160" width="160" height="26" as="alternateBounds" />
          </mxGeometry>
        </mxCell>
        <mxCell id="6itodu7bnTEYhRpX155G-6" value="public ArrayList&lt;Compte&gt; utilisateurs" style="text;align=left;verticalAlign=top;spacingLeft=4;spacingRight=4;overflow=hidden;rotatable=0;points=[[0,0.5],[1,0.5]];portConstraint=eastwest;" vertex="1" parent="6itodu7bnTEYhRpX155G-5">
          <mxGeometry y="26" width="340" height="34" as="geometry" />
        </mxCell>
        <mxCell id="6itodu7bnTEYhRpX155G-7" value="" style="line;html=1;strokeWidth=1;align=left;verticalAlign=middle;spacingTop=-1;spacingLeft=3;spacingRight=3;rotatable=0;labelPosition=right;points=[];portConstraint=eastwest;" vertex="1" parent="6itodu7bnTEYhRpX155G-5">
          <mxGeometry y="60" width="340" height="8" as="geometry" />
        </mxCell>
        <mxCell id="6itodu7bnTEYhRpX155G-8" value="public Compte authenticate(String pseudo, String password)&#xa;publid Boolean ajouter_compte(Compte compte)&#xa;public Boolean supprimer_compte(Compte compte)&#xa;public Boolean  desactiver_compte(Compte compte)&#xa;public Boolean activer_compte(Compte compte)&#xa;public String ToString()" style="text;align=left;verticalAlign=top;spacingLeft=4;spacingRight=4;overflow=hidden;rotatable=0;points=[[0,0.5],[1,0.5]];portConstraint=eastwest;" vertex="1" parent="6itodu7bnTEYhRpX155G-5">
          <mxGeometry y="68" width="340" height="102" as="geometry" />
        </mxCell>
        <mxCell id="6itodu7bnTEYhRpX155G-9" value="Personnage" style="swimlane;fontStyle=2;align=center;verticalAlign=top;childLayout=stackLayout;horizontal=1;startSize=26;horizontalStack=0;resizeParent=1;resizeLast=0;collapsible=1;marginBottom=0;rounded=0;shadow=0;strokeWidth=1;" vertex="1" parent="1">
          <mxGeometry x="10" y="530" width="420" height="390" as="geometry">
            <mxRectangle x="230" y="140" width="160" height="26" as="alternateBounds" />
          </mxGeometry>
        </mxCell>
        <mxCell id="6itodu7bnTEYhRpX155G-10" value="static Int get_id&#xa;protected int id&#xa;protected String nom" style="text;align=left;verticalAlign=top;spacingLeft=4;spacingRight=4;overflow=hidden;rotatable=0;points=[[0,0.5],[1,0.5]];portConstraint=eastwest;" vertex="1" parent="6itodu7bnTEYhRpX155G-9">
          <mxGeometry y="26" width="420" height="44" as="geometry" />
        </mxCell>
        <mxCell id="6itodu7bnTEYhRpX155G-11" value="protected Image portrait&#xa;protected String biographie&#xa;protected HashMap&lt;Statistique, Integer&gt; statistiques&#xa;protected ArrayList&lt;Competence&gt; competences&#xa;protected ArrayList&lt;Equipement&gt; equipements&#xa;protected String classse " style="text;align=left;verticalAlign=top;spacingLeft=4;spacingRight=4;overflow=hidden;rotatable=0;points=[[0,0.5],[1,0.5]];portConstraint=eastwest;rounded=0;shadow=0;html=0;" vertex="1" parent="6itodu7bnTEYhRpX155G-9">
          <mxGeometry y="70" width="420" height="90" as="geometry" />
        </mxCell>
        <mxCell id="6itodu7bnTEYhRpX155G-12" value="" style="line;html=1;strokeWidth=1;align=left;verticalAlign=middle;spacingTop=-1;spacingLeft=3;spacingRight=3;rotatable=0;labelPosition=right;points=[];portConstraint=eastwest;" vertex="1" parent="6itodu7bnTEYhRpX155G-9">
          <mxGeometry y="160" width="420" height="8" as="geometry" />
        </mxCell>
        <mxCell id="6itodu7bnTEYhRpX155G-13" value="public Personnage(String nom, Image portrait, String biographie,&#xa;    ArrayList&lt;Statistique&gt; statistiques, ArrayList&lt;Competence&gt; competences,&#xa;    ArrayList&lt;Equipement&gt; equipement, String classe)&#xa;public Booleen modifier_nom(String nom)&#xa;public Boolean modifier_portrait(Image portrait)&#xa;public Boolean modifier_biographie(String biographie)&#xa;public Boolean ajouter_statistiques(Statistique stat, int valeur)&#xa;public Boolean modifier_statistique(Statistique stat, int valeur)&#xa;public Boolean supprimer_statistique(Statistique stat)&#xa;public int get_valeur_statistique(Statistique statistique)&#xa;public Boolean ajouter_competence(Competence comp)&#xa;public Boolean supprimer_competence(Competence comp)&#xa;public Boolean ajouter_equipement(Equipe!ent equip)&#xa;public Boolean supprimer_equipement(Equipement equip)&#xa;public String ToString()" style="text;align=left;verticalAlign=top;spacingLeft=4;spacingRight=4;overflow=hidden;rotatable=0;points=[[0,0.5],[1,0.5]];portConstraint=eastwest;" vertex="1" parent="6itodu7bnTEYhRpX155G-9">
          <mxGeometry y="168" width="420" height="222" as="geometry" />
        </mxCell>
        <mxCell id="6itodu7bnTEYhRpX155G-14" value="Compétence" style="swimlane;fontStyle=2;align=center;verticalAlign=top;childLayout=stackLayout;horizontal=1;startSize=26;horizontalStack=0;resizeParent=1;resizeLast=0;collapsible=1;marginBottom=0;rounded=0;shadow=0;strokeWidth=1;" vertex="1" parent="1">
          <mxGeometry x="500" y="740" width="430" height="200" as="geometry">
            <mxRectangle x="230" y="140" width="160" height="26" as="alternateBounds" />
          </mxGeometry>
        </mxCell>
        <mxCell id="6itodu7bnTEYhRpX155G-15" value="static int get_id&#xa;public int id&#xa;public String nom&#xa;public String description&#xa;static ArrayList&lt;Competence&gt; liste_competence&#xa;" style="text;align=left;verticalAlign=top;spacingLeft=4;spacingRight=4;overflow=hidden;rotatable=0;points=[[0,0.5],[1,0.5]];portConstraint=eastwest;" vertex="1" parent="6itodu7bnTEYhRpX155G-14">
          <mxGeometry y="26" width="430" height="84" as="geometry" />
        </mxCell>
        <mxCell id="6itodu7bnTEYhRpX155G-16" value="" style="line;html=1;strokeWidth=1;align=left;verticalAlign=middle;spacingTop=-1;spacingLeft=3;spacingRight=3;rotatable=0;labelPosition=right;points=[];portConstraint=eastwest;" vertex="1" parent="6itodu7bnTEYhRpX155G-14">
          <mxGeometry y="110" width="430" height="8" as="geometry" />
        </mxCell>
        <mxCell id="6itodu7bnTEYhRpX155G-17" value="public boolean renommer(String nouveau_nom)&#xa;public boolean ajouter_description(String nouvelle_description)&#xa;public static boolean supprime_globale(Compétence p)&#xa;public String ToString()" style="text;align=left;verticalAlign=top;spacingLeft=4;spacingRight=4;overflow=hidden;rotatable=0;points=[[0,0.5],[1,0.5]];portConstraint=eastwest;" vertex="1" parent="6itodu7bnTEYhRpX155G-14">
          <mxGeometry y="118" width="430" height="82" as="geometry" />
        </mxCell>
        <mxCell id="6itodu7bnTEYhRpX155G-18" value="Statistique" style="swimlane;fontStyle=2;align=center;verticalAlign=top;childLayout=stackLayout;horizontal=1;startSize=26;horizontalStack=0;resizeParent=1;resizeLast=0;collapsible=1;marginBottom=0;rounded=0;shadow=0;strokeWidth=1;" vertex="1" parent="1">
          <mxGeometry x="390" y="1000" width="340" height="210" as="geometry">
            <mxRectangle x="230" y="140" width="160" height="26" as="alternateBounds" />
          </mxGeometry>
        </mxCell>
        <mxCell id="6itodu7bnTEYhRpX155G-19" value="static int get_id&#xa;public int id&#xa;public String description&#xa;static ArrayList&lt;Statistique&gt; liste_stats" style="text;align=left;verticalAlign=top;spacingLeft=4;spacingRight=4;overflow=hidden;rotatable=0;points=[[0,0.5],[1,0.5]];portConstraint=eastwest;" vertex="1" parent="6itodu7bnTEYhRpX155G-18">
          <mxGeometry y="26" width="340" height="74" as="geometry" />
        </mxCell>
        <mxCell id="6itodu7bnTEYhRpX155G-20" value="" style="line;html=1;strokeWidth=1;align=left;verticalAlign=middle;spacingTop=-1;spacingLeft=3;spacingRight=3;rotatable=0;labelPosition=right;points=[];portConstraint=eastwest;" vertex="1" parent="6itodu7bnTEYhRpX155G-18">
          <mxGeometry y="100" width="340" height="8" as="geometry" />
        </mxCell>
        <mxCell id="6itodu7bnTEYhRpX155G-21" value="public Boolean renommer(String nouveau_nom)&#xa;public Boolean ajouter_description(String nouvelle_description)&#xa;public Boolean supprime_globale(int id)&#xa;public String ToString()" style="text;align=left;verticalAlign=top;spacingLeft=4;spacingRight=4;overflow=hidden;rotatable=0;points=[[0,0.5],[1,0.5]];portConstraint=eastwest;" vertex="1" parent="6itodu7bnTEYhRpX155G-18">
          <mxGeometry y="108" width="340" height="102" as="geometry" />
        </mxCell>
        <mxCell id="6itodu7bnTEYhRpX155G-22" value="Est stocké" style="endArrow=classic;html=1;rounded=0;exitX=1.031;exitY=0.077;exitDx=0;exitDy=0;exitPerimeter=0;entryX=-0.006;entryY=0.222;entryDx=0;entryDy=0;entryPerimeter=0;" edge="1" parent="1" source="6itodu7bnTEYhRpX155G-4" target="6itodu7bnTEYhRpX155G-8">
          <mxGeometry relative="1" as="geometry">
            <mxPoint x="350" y="260" as="sourcePoint" />
            <mxPoint x="510" y="260" as="targetPoint" />
          </mxGeometry>
        </mxCell>
        <mxCell id="6itodu7bnTEYhRpX155G-23" value="1, *" style="edgeLabel;resizable=0;html=1;;align=left;verticalAlign=bottom;" connectable="0" vertex="1" parent="6itodu7bnTEYhRpX155G-22">
          <mxGeometry x="-1" relative="1" as="geometry" />
        </mxCell>
        <mxCell id="6itodu7bnTEYhRpX155G-24" value="&lt;div&gt;&lt;br&gt;&lt;/div&gt;&lt;div&gt;&lt;br&gt;&lt;/div&gt;" style="edgeLabel;resizable=0;html=1;;align=right;verticalAlign=bottom;" connectable="0" vertex="1" parent="6itodu7bnTEYhRpX155G-22">
          <mxGeometry x="1" relative="1" as="geometry" />
        </mxCell>
        <mxCell id="6itodu7bnTEYhRpX155G-25" value="Est stocké" style="endArrow=classic;html=1;rounded=0;exitX=0.5;exitY=0;exitDx=0;exitDy=0;" edge="1" parent="1" source="6itodu7bnTEYhRpX155G-9">
          <mxGeometry relative="1" as="geometry">
            <mxPoint x="70" y="463" as="sourcePoint" />
            <mxPoint x="190" y="340" as="targetPoint" />
          </mxGeometry>
        </mxCell>
        <mxCell id="6itodu7bnTEYhRpX155G-26" value="1, *" style="edgeLabel;resizable=0;html=1;;align=left;verticalAlign=bottom;" connectable="0" vertex="1" parent="6itodu7bnTEYhRpX155G-25">
          <mxGeometry x="-1" relative="1" as="geometry" />
        </mxCell>
        <mxCell id="6itodu7bnTEYhRpX155G-27" value="&lt;div&gt;&lt;br&gt;&lt;/div&gt;&lt;div&gt;&lt;br&gt;&lt;/div&gt;" style="edgeLabel;resizable=0;html=1;;align=right;verticalAlign=bottom;" connectable="0" vertex="1" parent="6itodu7bnTEYhRpX155G-25">
          <mxGeometry x="1" relative="1" as="geometry" />
        </mxCell>
        <mxCell id="6itodu7bnTEYhRpX155G-28" value="Est possédé" style="endArrow=classic;html=1;rounded=0;exitX=0.5;exitY=0;exitDx=0;exitDy=0;" edge="1" parent="1" source="6itodu7bnTEYhRpX155G-37">
          <mxGeometry relative="1" as="geometry">
            <mxPoint x="220" y="970" as="sourcePoint" />
            <mxPoint x="190" y="900" as="targetPoint" />
          </mxGeometry>
        </mxCell>
        <mxCell id="6itodu7bnTEYhRpX155G-29" value="1, *" style="edgeLabel;resizable=0;html=1;;align=left;verticalAlign=bottom;" connectable="0" vertex="1" parent="6itodu7bnTEYhRpX155G-28">
          <mxGeometry x="-1" relative="1" as="geometry" />
        </mxCell>
        <mxCell id="6itodu7bnTEYhRpX155G-30" value="&lt;div&gt;&lt;br&gt;&lt;/div&gt;&lt;div&gt;&lt;br&gt;&lt;/div&gt;" style="edgeLabel;resizable=0;html=1;;align=right;verticalAlign=bottom;" connectable="0" vertex="1" parent="6itodu7bnTEYhRpX155G-28">
          <mxGeometry x="1" relative="1" as="geometry" />
        </mxCell>
        <mxCell id="6itodu7bnTEYhRpX155G-31" value="Est possédé" style="endArrow=classic;html=1;rounded=0;exitX=0.527;exitY=0.028;exitDx=0;exitDy=0;entryX=1.021;entryY=0.836;entryDx=0;entryDy=0;entryPerimeter=0;exitPerimeter=0;" edge="1" parent="1" source="6itodu7bnTEYhRpX155G-14" target="6itodu7bnTEYhRpX155G-11">
          <mxGeometry relative="1" as="geometry">
            <mxPoint x="487" y="740" as="sourcePoint" />
            <mxPoint x="457" y="620" as="targetPoint" />
          </mxGeometry>
        </mxCell>
        <mxCell id="6itodu7bnTEYhRpX155G-32" value="1, *" style="edgeLabel;resizable=0;html=1;;align=left;verticalAlign=bottom;" connectable="0" vertex="1" parent="6itodu7bnTEYhRpX155G-31">
          <mxGeometry x="-1" relative="1" as="geometry" />
        </mxCell>
        <mxCell id="6itodu7bnTEYhRpX155G-33" value="&lt;div&gt;&lt;br&gt;&lt;/div&gt;&lt;div&gt;&lt;br&gt;&lt;/div&gt;" style="edgeLabel;resizable=0;html=1;;align=right;verticalAlign=bottom;" connectable="0" vertex="1" parent="6itodu7bnTEYhRpX155G-31">
          <mxGeometry x="1" relative="1" as="geometry" />
        </mxCell>
        <mxCell id="6itodu7bnTEYhRpX155G-34" value="Est possédé" style="endArrow=classic;html=1;rounded=0;exitX=0.5;exitY=0;exitDx=0;exitDy=0;entryX=1.008;entryY=1.036;entryDx=0;entryDy=0;entryPerimeter=0;" edge="1" parent="1" source="6itodu7bnTEYhRpX155G-18" target="6itodu7bnTEYhRpX155G-13">
          <mxGeometry relative="1" as="geometry">
            <mxPoint x="680" y="911" as="sourcePoint" />
            <mxPoint x="650" y="791" as="targetPoint" />
          </mxGeometry>
        </mxCell>
        <mxCell id="6itodu7bnTEYhRpX155G-35" value="1, *" style="edgeLabel;resizable=0;html=1;;align=left;verticalAlign=bottom;" connectable="0" vertex="1" parent="6itodu7bnTEYhRpX155G-34">
          <mxGeometry x="-1" relative="1" as="geometry" />
        </mxCell>
        <mxCell id="6itodu7bnTEYhRpX155G-36" value="&lt;div&gt;&lt;br&gt;&lt;/div&gt;&lt;div&gt;&lt;br&gt;&lt;/div&gt;" style="edgeLabel;resizable=0;html=1;;align=right;verticalAlign=bottom;" connectable="0" vertex="1" parent="6itodu7bnTEYhRpX155G-34">
          <mxGeometry x="1" relative="1" as="geometry" />
        </mxCell>
        <mxCell id="6itodu7bnTEYhRpX155G-37" value="Equipement" style="swimlane;fontStyle=2;align=center;verticalAlign=top;childLayout=stackLayout;horizontal=1;startSize=26;horizontalStack=0;resizeParent=1;resizeLast=0;collapsible=1;marginBottom=0;rounded=0;shadow=0;strokeWidth=1;" vertex="1" parent="1">
          <mxGeometry x="25" y="1000" width="340" height="190" as="geometry">
            <mxRectangle x="230" y="140" width="160" height="26" as="alternateBounds" />
          </mxGeometry>
        </mxCell>
        <mxCell id="6itodu7bnTEYhRpX155G-38" value="static int get_id&#xa;public int id&#xa;public String nom&#xa;public String description&#xa;static ArrayList&lt;Equipement&gt; liste_equipement" style="text;align=left;verticalAlign=top;spacingLeft=4;spacingRight=4;overflow=hidden;rotatable=0;points=[[0,0.5],[1,0.5]];portConstraint=eastwest;" vertex="1" parent="6itodu7bnTEYhRpX155G-37">
          <mxGeometry y="26" width="340" height="74" as="geometry" />
        </mxCell>
        <mxCell id="6itodu7bnTEYhRpX155G-39" value="" style="line;html=1;strokeWidth=1;align=left;verticalAlign=middle;spacingTop=-1;spacingLeft=3;spacingRight=3;rotatable=0;labelPosition=right;points=[];portConstraint=eastwest;" vertex="1" parent="6itodu7bnTEYhRpX155G-37">
          <mxGeometry y="100" width="340" height="8" as="geometry" />
        </mxCell>
        <mxCell id="6itodu7bnTEYhRpX155G-40" value="public Boolean renommer(String nouveau_nom)&#xa;public Boolean ajouter_description(String nouvelle_description)&#xa;public static Boolean supprime_globale(Equipement p)&#xa;public String ToString()" style="text;align=left;verticalAlign=top;spacingLeft=4;spacingRight=4;overflow=hidden;rotatable=0;points=[[0,0.5],[1,0.5]];portConstraint=eastwest;" vertex="1" parent="6itodu7bnTEYhRpX155G-37">
          <mxGeometry y="108" width="340" height="82" as="geometry" />
        </mxCell>
      </root>
    </mxGraphModel>
  </diagram>
</mxfile>
